<?xml version="1.0" encoding="utf-8"?>
<!-- Generator: Adobe Illustrator 21.1.0, SVG Export Plug-In . SVG Version: 6.00 Build 0)  -->
<svg version="1.1" id="Layer_1" xmlns="http://www.w3.org/2000/svg" xmlns:xlink="http://www.w3.org/1999/xlink" x="0px" y="0px"
	 width="150px" height="150px" viewBox="0 0 150 150" style="enable-background:new 0 0 150 150;" xml:space="preserve">
<style type="text/css">
	.st0{fill:#076473;}
	.st1{fill:#FEFEFE;}
</style>
<g>
	<path class="st0" d="M75.2,57.7c20.3,0,40.6,0,60.9,0c2.7,0,4,1.3,4,3.8c0,23.4,0,46.8,0,70.2c0,6-3.6,10.7-9,12.6
		c-1.5,0.5-3,0.9-4.6,0.9c-34.2,0-68.4,0-102.7,0c-5.6,0-10.9-3.7-12.8-8.6c-0.6-1.6-0.9-3.1-0.9-4.8c0-23.4,0-46.9,0-70.3
		c0-2.5,1.4-3.7,4-3.7C34.5,57.7,54.9,57.7,75.2,57.7z M50.7,91.4c-1.1-0.2-2,0.3-2.8,1c-2.7,2.5-5.4,5-8.1,7.6
		c-1.3,1.2-1.2,3.2,0,4.4c1,1,2,2,3,3c6.2,5.9,12.4,11.7,18.6,17.6c0.7,0.6,1.3,1.4,2,2c2,1.7,3.8,1.7,5.7-0.1
		c4.6-4.3,9.2-8.6,13.8-12.9c6-5.5,11.9-11.2,17.9-16.8c0.5-0.5,1-1,1.6-1.5c2.7-2.3,5.3-4.8,7.8-7.3c1.3-1.3,1.2-3.2-0.1-4.5
		c-2.6-2.6-5.3-5.1-8-7.7c-1.6-1.5-3.6-1.5-5.2,0c-4.2,3.9-8.4,7.9-12.6,11.8c-5.7,5.3-11.4,10.7-17,16c-0.7,0.6-1,0.7-1.8,0
		c-4.1-3.9-8.2-7.8-12.3-11.7C52.6,91.7,51.9,91.2,50.7,91.4z"/>
	<path class="st0" d="M75.2,48.9c-20.3,0-40.6,0-60.9,0c-2.8,0-4.1-1.3-4.1-3.8c0-3.1,0-6.1,0-9.2c-0.1-6.3,4.7-11.8,11.6-13
		c0.8-0.1,1.6-0.2,2.4-0.2c4.2,0,8.4,0,12.6,0c1.3,0,1.3,0,1.3-1.2c0-4.2,0-8.4,0-12.7c0-2.3,1.4-3.6,3.8-3.6c3.5,0,7,0.1,10.5,0
		c2.8-0.1,4.3,1.7,4.2,4c-0.1,4.2,0,8.4,0,12.7c0,0.7,0.2,0.9,1,0.9c11.7,0,23.5,0,35.2,0c0.8,0,1-0.2,1-1c0-4.3,0-8.6,0-12.9
		c0-2.3,1.4-3.6,3.9-3.6c3.6,0,7.3,0,10.9,0c2.3,0,3.8,1.4,3.8,3.6c0,4.2,0,8.4,0,12.7c0,1.2,0,1.2,1.3,1.2c4.3,0,8.5,0,12.8,0
		c6.9,0,12.8,5,13.6,11.5c0.5,3.9,0.2,7.9,0.2,11.8c0,1.6-1.6,2.9-3.3,3c-0.3,0-0.6,0-0.9,0C115.6,48.9,95.4,48.9,75.2,48.9z"/>
	<path class="st1" d="M50.7,91.4c1.1-0.2,1.9,0.3,2.6,1c4.1,3.9,8.3,7.8,12.3,11.7c0.7,0.7,1.1,0.6,1.8,0c5.7-5.4,11.3-10.7,17-16
		c4.2-3.9,8.4-7.9,12.6-11.8c1.6-1.5,3.6-1.5,5.2,0c2.7,2.5,5.4,5,8,7.7c1.3,1.3,1.4,3.3,0.1,4.5c-2.6,2.5-5.1,5-7.8,7.3
		c-0.6,0.5-1.1,1-1.6,1.5c-6,5.6-11.9,11.2-17.9,16.8c-4.6,4.3-9.2,8.6-13.8,12.9c-1.9,1.8-3.8,1.8-5.7,0.1c-0.7-0.6-1.3-1.3-2-2
		c-6.2-5.9-12.4-11.7-18.6-17.6c-1-1-2-2-3-3c-1.3-1.2-1.3-3.2,0-4.4c2.7-2.6,5.4-5.1,8.1-7.6C48.7,91.7,49.6,91.2,50.7,91.4z"/>
</g>
</svg>
