<?xml version="1.0" encoding="utf-8"?>
<!-- Generator: Adobe Illustrator 21.1.0, SVG Export Plug-In . SVG Version: 6.00 Build 0)  -->
<svg version="1.1" id="Layer_1" xmlns="http://www.w3.org/2000/svg" xmlns:xlink="http://www.w3.org/1999/xlink" x="0px" y="0px"
	 width="170px" height="150px" viewBox="0 0 170 150" style="enable-background:new 0 0 170 150;" xml:space="preserve">
<style type="text/css">
	.st0{fill:#076473;}
</style>
<g>
	<path class="st0" d="M32.8,103.3c-7.6,0-15.2-0.1-22.8,0c-5.1,0.1-9.2-4-9.2-9.2c0.1-11.3,0-22.5,0-33.8c0-4.6,3.8-8.5,8.4-8.5
		c15.7,0,31.5,0,47.2,0c1.1,0,1.5-0.3,1.5-1.4c0-10.9,0-21.9,0-32.8c0-3.6,2-6.6,5.5-8c3.4-1.3,6.5-0.7,9.1,1.9
		c20,20,40,40,60.1,60.1c3.3,3.3,3.3,8.5,0,11.8c-20.1,20.1-40.3,40.3-60.4,60.4c-2.3,2.3-5.2,2.8-8.2,1.8c-3.1-1-5.1-3.1-5.8-6.3
		c-0.2-0.7-0.2-1.5-0.2-2.2c0-10.8,0-21.6,0-32.4c0-1.2-0.2-1.5-1.5-1.5C48.6,103.4,40.7,103.3,32.8,103.3z"/>
	<path class="st0" d="M146.7,75.1c0-11,0-22,0-33.1c0-2.3-0.1-4.7-1.3-6.8c-2.2-3.9-5.5-6.1-10-6.1c-9.9-0.1-19.7,0-29.6,0
		c-3.1,0-4.8-1.7-4.8-4.8c0-4.5,0-9,0-13.4c0-2.8,1.8-4.6,4.6-4.6c10.1,0,20.1-0.1,30.2,0c8.1,0.1,15.4,2.8,21.6,8.2
		c6.2,5.3,10,12,11.5,20c0.4,2.1,0.6,4.3,0.6,6.5c0,22.8,0.1,45.7,0,68.5c0,8.2-2.8,15.4-8.2,21.7c-4.7,5.5-10.5,9.2-17.5,11
		c-2.5,0.7-5.1,1.1-7.7,1.1c-10.2,0-20.4,0-30.6,0c-2.8,0-4.6-1.8-4.6-4.5c0-4.6,0-9.2,0-13.8c0-2.7,1.8-4.5,4.6-4.5
		c9.8,0,19.6,0,29.4,0c5.4,0,9.8-3.2,11.3-8.4c0.3-1,0.4-2.1,0.4-3.2C146.7,97.6,146.7,86.4,146.7,75.1z"/>
</g>
</svg>
