<?xml version="1.0" encoding="utf-8"?>
<!-- Generator: Adobe Illustrator 21.1.0, SVG Export Plug-In . SVG Version: 6.00 Build 0)  -->
<svg version="1.1" id="Layer_1" xmlns="http://www.w3.org/2000/svg" xmlns:xlink="http://www.w3.org/1999/xlink" x="0px" y="0px"
	 width="150px" height="150px" viewBox="0 0 150 150" style="enable-background:new 0 0 150 150;" xml:space="preserve">
<style type="text/css">
	.st0{fill:#076473;}
</style>
<g>
	<path class="st0" d="M75.2,5.2c12.2,0,24.4,0.1,36.5,0c4.2,0,7.3,3.1,7.2,7.3c-0.1,4.1,0,8.2,0,12.3c0,3.8-2.9,6.7-6.7,6.7
		c-3.5,0-7,0-10.5,0c-0.7,0-0.9,0.2-0.8,0.9c0.3,2.5,0.6,5.1,0.8,7.7c0.2,2.6,0.6,5.2,0.8,7.8c0.2,2.1,0.4,4.2,0.7,6.3
		c0.2,2.2,0.4,4.5,0.6,6.7c0.1,0.8,0.2,1.5,0.2,2.3c0,0.4,0.2,0.8,0.7,1c4.2,1.9,8,4.4,11.5,7.5c5.9,5.2,10,11.4,11.2,19.3
		c0.3,1.7,0.6,3.4,0.2,5.1c-0.7,3.4-3.2,5.4-6.7,5.4c-11.9,0-23.8,0-35.7,0c-1.4,0-1.2-0.2-1.2,1.2c0,8.9,0,17.7,0,26.6
		c0,0.7-0.1,1.4-0.5,2.1c-2,4.1-4.1,8.1-6.1,12.2c-0.4,0.8-0.9,1.5-1.9,1.6c-1.1,0.1-1.8-0.4-2.3-1.3c-0.7-1.4-1.4-2.7-2-4.1
		c-1.4-2.8-2.8-5.6-4.2-8.4c-0.3-0.7-0.5-1.3-0.5-2.1c0-9,0-17.9,0-26.9c0-0.8-0.2-1-1-1c-12,0-24,0-36,0c-3.5,0-6.2-2.2-6.7-5.7
		c-0.3-2,0-3.9,0.4-5.9c1.5-7.5,5.5-13.5,11.2-18.4c3.4-3,7.1-5.3,11.2-7.3c0.5-0.2,0.7-0.5,0.7-1.1c0.2-2.4,0.5-4.9,0.8-7.3
		c0.3-2.6,0.6-5.2,0.8-7.9c0.3-3.3,0.7-6.6,1-9.8c0.2-1.9,0.4-3.9,0.6-5.8c0.1-0.7-0.2-0.9-0.9-0.8c-3.4,0-6.8,0-10.2,0
		c-4.3,0-7-2.7-7-7c0-4.1,0.1-8.1,0-12.2c-0.1-3.9,3-7.1,7.1-7.1C50.7,5.3,63,5.2,75.2,5.2z"/>
</g>
</svg>
