<?xml version="1.0" encoding="utf-8"?>
<!-- Generator: Adobe Illustrator 21.1.0, SVG Export Plug-In . SVG Version: 6.00 Build 0)  -->
<svg version="1.1" id="Layer_1" xmlns="http://www.w3.org/2000/svg" xmlns:xlink="http://www.w3.org/1999/xlink" x="0px" y="0px"
	 width="150px" height="150px" viewBox="0 0 150 150" style="enable-background:new 0 0 150 150;" xml:space="preserve">
<style type="text/css">
	.st0{fill:#076473;}
</style>
<g>
	<path class="st0" d="M12.9,64.7c0-12.3,0-24.6,0-36.9c0-0.9-0.2-1.2-1.2-1.2c-1.9,0.1-3.9,0-5.8,0s-2.8-0.9-2.8-2.8
		c0-4.5,0-9.1,0-13.6c0-2.2,0.8-3.1,3.1-3.1c17.8,0,35.7,0,53.5,0c3,0,5.9,0,8.9,0c2,0,3,0.9,3,2.9c0,4.6,0,9.2,0,13.7
		c0,2-0.9,2.9-2.9,2.9s-4,0-6,0c-0.6,0-0.9,0.2-0.8,0.8c0,0.3,0,0.5,0,0.8c0,23.8,0,47.6,0,71.4c0,7.2-2.6,13.3-7.8,18.2
		c-3.8,3.6-8.3,5.7-13.5,6.4c-12.4,1.7-24.1-6.5-27-18.7c-0.4-1.9-0.6-3.7-0.6-5.6C12.9,88.2,12.9,76.5,12.9,64.7z M27.5,41.3
		c0,4.5,0,9.1,0,13.6c0,0.8,0.2,1.1,1,1.1c5.8,0,11.7,0,17.5,0c0.9,0,1-0.3,1-1.1c0-9.1,0-18.1,0-27.2c0-0.8-0.2-1.1-1-1.1
		c-5.8,0-11.7,0-17.5,0c-0.9,0-1,0.3-1,1.1C27.6,32.3,27.5,36.8,27.5,41.3z"/>
	<path class="st0" d="M88.6,64.7c0-12.3,0-24.5,0-36.8c0-1-0.2-1.3-1.2-1.2c-1.9,0.1-3.9,0-5.8,0c-1.8,0-2.8-1-2.8-2.8
		c0-4.7,0-9.4,0-14c0-1.7,1-2.7,2.7-2.7c21,0,42,0,63,0c1.7,0,2.7,1,2.7,2.6c0,4.8,0,9.5,0,14.3c0,1.6-1,2.6-2.7,2.6c-2,0-4,0-6,0
		c-0.8,0-1.1,0.2-1.1,1.1c0,4,0,7.9,0,11.9c0,20,0,39.9,0,59.9c0,4.3-0.8,8.4-3,12.2c-3.9,6.8-9.6,10.9-17.3,12.4
		c-5.1,1-9.9,0.2-14.5-1.9s-8.2-5.5-10.7-9.9c-1.5-2.5-2.4-5.2-3-8.1c-0.2-0.8-0.2-1.6-0.2-2.4C88.6,89.4,88.6,77,88.6,64.7
		L88.6,64.7z M122.8,41.5c0-4.5,0-9.1,0-13.6c0-0.8-0.2-1.2-1.1-1.2c-5.8,0-11.6,0-17.4,0c-0.8,0-1.1,0.2-1.1,1c0,9.1,0,18.2,0,27.3
		c0,0.9,0.3,1.1,1.1,1c5.8,0,11.6,0,17.4,0c0.9,0,1.1-0.3,1.1-1.2C122.8,50.4,122.8,45.9,122.8,41.5z"/>
	<path class="st0" d="M75.2,128.8c22.5,0,45.1,0,67.6,0c1.9,0,3.9,1.3,3.9,3.9c0,2.1-0.1,4.3,0,6.4c0.1,2.4-1.9,4-4,4
		c-8.2-0.1-16.4,0-24.7,0c-36.8,0-73.6,0-110.4,0c-1.2,0-2.2-0.3-3-1.1c-0.7-0.7-1-1.5-1-2.5c0-2.3,0-4.7,0-7c0-2.1,1.6-3.7,3.7-3.7
		c16.5,0,32.9,0,49.4,0C62.9,128.8,69.1,128.8,75.2,128.8z"/>
</g>
</svg>
